<svg width="272" height="272" viewBox="0 0 272 272" fill="none" xmlns="http://www.w3.org/2000/svg">
<path d="M195.324 84.5103C195.324 83.1744 194.793 81.8932 193.849 80.9486C192.904 80.004 191.623 79.4733 190.287 79.4733H81.1513C79.8154 79.4733 78.5342 80.004 77.5896 80.9486C76.6449 81.8932 76.1143 83.1744 76.1143 84.5103V193.646C76.1143 194.982 76.6449 196.263 77.5896 197.208C78.5342 198.152 79.8154 198.683 81.1513 198.683H190.287C191.623 198.683 192.904 198.152 193.849 197.208C194.793 196.263 195.324 194.982 195.324 193.646V84.5103ZM86.1883 89.5474H185.81V188.609H86.1883V89.5474Z" fill="#293165"/>
<path d="M235.621 44.2918C235.621 41.5097 233.639 39.177 230.857 39.177H204.28V0H194.206V39.177H172.938V0H162.864V39.177H141.037V0H130.963V39.177H109.136V0H99.0617V39.177H77.7942V0H67.7202V39.177H41.1431C38.361 39.177 36.3786 41.5097 36.3786 44.2918V70.5185H0V80.5926H36.3786V102.42H0V112.494H36.3786V134.321H0V144.395H36.3786V165.663H0V175.737H36.3786V197.564H0V207.638H36.3786V234.005C36.3786 236.787 38.361 238.979 41.1431 238.979H67.7202V272H77.7942V238.979H99.0617V272H109.136V238.979H130.963V272H141.037V238.979H162.864V272H172.938V238.979H194.206V272H204.28V238.979H230.857C233.639 238.979 235.621 236.787 235.621 234.005V207.638H272V197.564H235.621V175.737H272V165.663H235.621V144.395H272V134.321H235.621V112.494H272V102.42H235.621V80.5926H272V70.5185H235.621V44.2918ZM225.547 228.905H46.4527V49.251H225.547V228.905Z" fill="#293165"/>
</svg>
