<svg width="218" height="50" viewBox="0 0 218 50" fill="none" xmlns="http://www.w3.org/2000/svg">
<path d="M10.944 46.08C17.408 46.08 21.888 41.472 21.888 35.072C21.888 30.144 19.776 26.88 13.248 20.352C8.448 15.552 7.04 13.504 7.04 10.688C7.04 7.872 8.384 6.4 10.752 6.4C13.12 6.4 14.464 8.192 14.464 11.648V12.928L20.992 12.224V11.072C20.992 4.352 17.152 0 10.688 0C4.224 0 0.384 4.352 0.384 11.008C0.384 15.936 2.304 19.392 9.024 25.728C14.08 30.528 15.232 32.576 15.232 35.392C15.232 38.016 13.568 39.68 10.88 39.68C8.192 39.68 6.528 37.696 6.528 34.432V32.768L0 33.472V35.072C0 41.472 4.48 46.08 10.944 46.08Z" fill="#F5DA7B"/>
<path d="M23.2975 7.04H30.7215V45.44H37.5055V7.04H44.9295V0.639999H23.2975V7.04Z" fill="#F5DA7B"/>
<path d="M60.3215 45.44H67.2335L59.8095 0.639999H50.7215L43.2975 45.44H50.0815L51.5535 35.52H58.8495L60.3215 45.44ZM52.4495 28.992L55.2015 10.24L57.9535 28.992H52.4495Z" fill="#F5DA7B"/>
<path d="M79.8815 46.08C86.3455 46.08 90.8255 41.472 90.8255 35.072C90.8255 30.144 88.7135 26.88 82.1855 20.352C77.3855 15.552 75.9775 13.504 75.9775 10.688C75.9775 7.872 77.3215 6.4 79.6895 6.4C82.0575 6.4 83.4015 8.192 83.4015 11.648V12.928L89.9295 12.224V11.072C89.9295 4.352 86.0895 0 79.6255 0C73.1615 0 69.3215 4.352 69.3215 11.008C69.3215 15.936 71.2415 19.392 77.9615 25.728C83.0175 30.528 84.1695 32.576 84.1695 35.392C84.1695 38.016 82.5055 39.68 79.8175 39.68C77.1295 39.68 75.4655 37.696 75.4655 34.432V32.768L68.9375 33.472V35.072C68.9375 41.472 73.4175 46.08 79.8815 46.08Z" fill="#F5DA7B"/>
<path d="M101.382 45.44V25.92H109.446V45.44H116.23V0.639999H109.446V19.52H101.382V0.639999H94.5985V45.44H101.382Z" fill="#F5DA7B"/>
<path d="M126.685 13.4401H125.533V2.11206H126.685V13.4401Z" fill="#FCFCFC"/>
<path d="M130.375 5.95206C130.397 6.15473 130.407 6.35739 130.407 6.56006C130.418 6.75206 130.423 6.94939 130.423 7.15206H130.455C130.573 6.94939 130.722 6.76273 130.903 6.59206C131.085 6.42139 131.287 6.27739 131.511 6.16006C131.735 6.03206 131.97 5.93606 132.215 5.87206C132.471 5.79739 132.722 5.76006 132.967 5.76006C133.927 5.76006 134.637 6.01606 135.095 6.52806C135.554 7.02939 135.783 7.74939 135.783 8.68806V13.4401H134.727V9.29606C134.727 8.46406 134.583 7.82939 134.295 7.39206C134.007 6.94406 133.474 6.72006 132.695 6.72006C132.642 6.72006 132.493 6.74139 132.247 6.78406C132.002 6.82673 131.741 6.94406 131.463 7.13606C131.197 7.32806 130.957 7.61606 130.743 8.00006C130.53 8.38406 130.423 8.91739 130.423 9.60006V13.4401H129.367V7.60006C129.367 7.39739 129.357 7.14139 129.335 6.83206C129.325 6.52273 129.309 6.22939 129.287 5.95206H130.375Z" fill="#FCFCFC"/>
<path d="M143.714 7.71206C143.533 7.43473 143.277 7.20006 142.946 7.00806C142.626 6.81606 142.258 6.72006 141.842 6.72006C141.405 6.70939 141.01 6.77873 140.658 6.92806C140.317 7.07739 140.023 7.28539 139.778 7.55206C139.533 7.81873 139.346 8.13873 139.218 8.51206C139.09 8.87473 139.026 9.26939 139.026 9.69606C139.026 10.1227 139.09 10.5227 139.218 10.8961C139.346 11.2587 139.533 11.5734 139.778 11.8401C140.023 12.1067 140.317 12.3147 140.658 12.4641C141.01 12.6134 141.405 12.6827 141.842 12.6721C142.258 12.6721 142.626 12.5761 142.946 12.3841C143.277 12.1921 143.533 11.9574 143.714 11.6801L144.578 12.3361C144.205 12.7734 143.783 13.0987 143.314 13.3121C142.845 13.5147 142.354 13.6214 141.842 13.6321C141.234 13.6427 140.685 13.5521 140.194 13.3601C139.703 13.1574 139.282 12.8801 138.93 12.5281C138.589 12.1761 138.327 11.7601 138.146 11.2801C137.965 10.7894 137.874 10.2614 137.874 9.69606C137.874 9.13073 137.965 8.60806 138.146 8.12806C138.327 7.63739 138.589 7.21606 138.93 6.86406C139.282 6.51206 139.703 6.24006 140.194 6.04806C140.685 5.84539 141.234 5.74939 141.842 5.76006C142.354 5.77073 142.845 5.88273 143.314 6.09606C143.783 6.29873 144.205 6.61873 144.578 7.05606L143.714 7.71206Z" fill="#FCFCFC"/>
<path d="M151.801 9.12006C151.801 8.40539 151.587 7.82939 151.161 7.39206C150.734 6.94406 150.137 6.72006 149.369 6.72006C149.027 6.72006 148.697 6.78939 148.377 6.92806C148.057 7.05606 147.774 7.23206 147.529 7.45606C147.294 7.68006 147.102 7.93606 146.953 8.22406C146.814 8.51206 146.745 8.81073 146.745 9.12006H151.801ZM146.713 9.98406C146.745 10.3574 146.835 10.7094 146.985 11.0401C147.134 11.3707 147.331 11.6587 147.577 11.9041C147.822 12.1387 148.105 12.3254 148.425 12.4641C148.745 12.6027 149.091 12.6721 149.465 12.6721C150.03 12.6721 150.515 12.5441 150.921 12.2881C151.337 12.0214 151.651 11.7174 151.865 11.3761L152.681 12.0481C152.233 12.6134 151.737 13.0187 151.193 13.2641C150.659 13.5094 150.083 13.6321 149.465 13.6321C148.91 13.6321 148.393 13.5361 147.913 13.3441C147.443 13.1414 147.038 12.8641 146.697 12.5121C146.355 12.1601 146.083 11.7441 145.881 11.2641C145.689 10.7841 145.593 10.2614 145.593 9.69606C145.593 9.13073 145.689 8.60806 145.881 8.12806C146.073 7.64806 146.339 7.23206 146.681 6.88006C147.022 6.52806 147.422 6.25606 147.881 6.06406C148.339 5.86139 148.835 5.76006 149.369 5.76006C149.934 5.76006 150.441 5.86139 150.889 6.06406C151.337 6.26673 151.71 6.53873 152.009 6.88006C152.318 7.21073 152.553 7.60539 152.713 8.06406C152.873 8.51206 152.953 8.99206 152.953 9.50406V9.98406H146.713Z" fill="#FCFCFC"/>
<path d="M155.875 5.95206C155.897 6.15473 155.907 6.35739 155.907 6.56006C155.918 6.75206 155.923 6.94939 155.923 7.15206H155.955C156.073 6.94939 156.222 6.76273 156.403 6.59206C156.585 6.42139 156.787 6.27739 157.011 6.16006C157.235 6.03206 157.47 5.93606 157.715 5.87206C157.971 5.79739 158.222 5.76006 158.467 5.76006C159.427 5.76006 160.137 6.01606 160.595 6.52806C161.054 7.02939 161.283 7.74939 161.283 8.68806V13.4401H160.227V9.29606C160.227 8.46406 160.083 7.82939 159.795 7.39206C159.507 6.94406 158.974 6.72006 158.195 6.72006C158.142 6.72006 157.993 6.74139 157.747 6.78406C157.502 6.82673 157.241 6.94406 156.963 7.13606C156.697 7.32806 156.457 7.61606 156.243 8.00006C156.03 8.38406 155.923 8.91739 155.923 9.60006V13.4401H154.867V7.60006C154.867 7.39739 154.857 7.14139 154.835 6.83206C154.825 6.52273 154.809 6.22939 154.787 5.95206H155.875Z" fill="#FCFCFC"/>
<path d="M167.63 6.91206H165.47V11.3281C165.47 11.6054 165.497 11.8347 165.55 12.0161C165.603 12.1867 165.678 12.3201 165.774 12.4161C165.87 12.5121 165.982 12.5814 166.11 12.6241C166.249 12.6561 166.398 12.6721 166.558 12.6721C166.739 12.6721 166.926 12.6454 167.118 12.5921C167.31 12.5387 167.486 12.4694 167.646 12.3841L167.694 13.3601C167.299 13.5414 166.825 13.6321 166.27 13.6321C166.067 13.6321 165.854 13.6054 165.63 13.5521C165.417 13.4987 165.219 13.3974 165.038 13.2481C164.857 13.0987 164.707 12.8961 164.59 12.6401C164.473 12.3841 164.414 12.0481 164.414 11.6321V6.91206H162.83V5.95206H164.414V3.84006H165.47V5.95206H167.63V6.91206Z" fill="#FCFCFC"/>
<path d="M170.607 3.07206C170.607 3.29606 170.527 3.48273 170.367 3.63206C170.207 3.77073 170.031 3.84006 169.839 3.84006C169.647 3.84006 169.471 3.77073 169.311 3.63206C169.151 3.48273 169.071 3.29606 169.071 3.07206C169.071 2.84806 169.151 2.66673 169.311 2.52806C169.471 2.37873 169.647 2.30406 169.839 2.30406C170.031 2.30406 170.207 2.37873 170.367 2.52806C170.527 2.66673 170.607 2.84806 170.607 3.07206ZM170.367 13.4401H169.311V5.95206H170.367V13.4401Z" fill="#FCFCFC"/>
<path d="M176.21 13.4401H175.026L171.986 5.95206H173.25L175.634 12.2561H175.666L178.05 5.95206H179.25L176.21 13.4401Z" fill="#FCFCFC"/>
<path d="M186.457 9.12006C186.457 8.40539 186.244 7.82939 185.817 7.39206C185.39 6.94406 184.793 6.72006 184.025 6.72006C183.684 6.72006 183.353 6.78939 183.033 6.92806C182.713 7.05606 182.43 7.23206 182.185 7.45606C181.95 7.68006 181.758 7.93606 181.609 8.22406C181.47 8.51206 181.401 8.81073 181.401 9.12006H186.457ZM181.369 9.98406C181.401 10.3574 181.492 10.7094 181.641 11.0401C181.79 11.3707 181.988 11.6587 182.233 11.9041C182.478 12.1387 182.761 12.3254 183.081 12.4641C183.401 12.6027 183.748 12.6721 184.121 12.6721C184.686 12.6721 185.172 12.5441 185.577 12.2881C185.993 12.0214 186.308 11.7174 186.521 11.3761L187.337 12.0481C186.889 12.6134 186.393 13.0187 185.849 13.2641C185.316 13.5094 184.74 13.6321 184.121 13.6321C183.566 13.6321 183.049 13.5361 182.569 13.3441C182.1 13.1414 181.694 12.8641 181.353 12.5121C181.012 12.1601 180.74 11.7441 180.537 11.2641C180.345 10.7841 180.249 10.2614 180.249 9.69606C180.249 9.13073 180.345 8.60806 180.537 8.12806C180.729 7.64806 180.996 7.23206 181.337 6.88006C181.678 6.52806 182.078 6.25606 182.537 6.06406C182.996 5.86139 183.492 5.76006 184.025 5.76006C184.59 5.76006 185.097 5.86139 185.545 6.06406C185.993 6.26673 186.366 6.53873 186.665 6.88006C186.974 7.21073 187.209 7.60539 187.369 8.06406C187.529 8.51206 187.609 8.99206 187.609 9.50406V9.98406H181.369Z" fill="#FCFCFC"/>
<path d="M126.685 23.1201H128.541C129.053 23.1201 129.485 23.0667 129.837 22.9601C130.199 22.8534 130.487 22.7147 130.701 22.5441C130.914 22.3627 131.069 22.1547 131.165 21.9201C131.261 21.6747 131.309 21.4134 131.309 21.1361C131.309 20.8694 131.261 20.6187 131.165 20.3841C131.069 20.1387 130.914 19.9254 130.701 19.7441C130.487 19.5627 130.199 19.4241 129.837 19.3281C129.485 19.2214 129.053 19.1681 128.541 19.1681H126.685V23.1201ZM125.533 18.1121H128.829C129.981 18.1121 130.887 18.3627 131.549 18.8641C132.221 19.3654 132.557 20.1227 132.557 21.1361C132.557 22.1494 132.221 22.9121 131.549 23.4241C130.887 23.9254 129.981 24.1761 128.829 24.1761H126.685V29.4401H125.533V18.1121Z" fill="#FCFCFC"/>
<path d="M138.592 25.7121C138.326 25.7121 137.99 25.7281 137.584 25.7601C137.19 25.7814 136.806 25.8454 136.432 25.9521C136.07 26.0481 135.755 26.2027 135.488 26.4161C135.232 26.6294 135.104 26.9227 135.104 27.2961C135.104 27.5414 135.152 27.7547 135.248 27.9361C135.355 28.1067 135.494 28.2507 135.664 28.3681C135.835 28.4747 136.022 28.5547 136.224 28.6081C136.438 28.6507 136.651 28.6721 136.864 28.6721C137.248 28.6721 137.579 28.6081 137.856 28.4801C138.144 28.3521 138.384 28.1814 138.576 27.9681C138.768 27.7441 138.907 27.4881 138.992 27.2001C139.088 26.9014 139.136 26.5867 139.136 26.2561V25.7121H138.592ZM139.136 24.8481V24.6561C139.136 23.3654 138.496 22.7201 137.216 22.7201C136.342 22.7201 135.579 23.0134 134.928 23.6001L134.288 22.8481C134.992 22.1227 136.048 21.7601 137.456 21.7601C137.819 21.7601 138.166 21.8134 138.496 21.9201C138.838 22.0267 139.131 22.1921 139.376 22.4161C139.622 22.6294 139.819 22.9014 139.968 23.2321C140.118 23.5627 140.192 23.9574 140.192 24.4161V27.7601C140.192 28.0481 140.203 28.3521 140.224 28.6721C140.256 28.9814 140.288 29.2374 140.32 29.4401H139.296C139.264 29.2587 139.238 29.0614 139.216 28.8481C139.206 28.6347 139.2 28.4267 139.2 28.2241H139.168C138.859 28.7254 138.491 29.0881 138.064 29.3121C137.648 29.5254 137.136 29.6321 136.528 29.6321C136.198 29.6321 135.878 29.5841 135.568 29.4881C135.259 29.4027 134.982 29.2694 134.736 29.0881C134.502 28.8961 134.31 28.6667 134.16 28.4001C134.022 28.1227 133.952 27.8027 133.952 27.4401C133.952 26.8321 134.107 26.3574 134.416 26.0161C134.736 25.6641 135.131 25.4027 135.6 25.2321C136.08 25.0614 136.587 24.9547 137.12 24.9121C137.664 24.8694 138.16 24.8481 138.608 24.8481H139.136Z" fill="#FCFCFC"/>
<path d="M145.417 28.1441L147.705 21.9521H148.985L145.241 31.3921C145.017 31.9681 144.729 32.4267 144.377 32.7681C144.036 33.1094 143.54 33.2801 142.889 33.2801C142.729 33.2801 142.564 33.2747 142.393 33.2641C142.233 33.2534 142.073 33.2214 141.913 33.1681L142.025 32.1441C142.249 32.2614 142.516 32.3201 142.825 32.3201C143.198 32.3201 143.492 32.2027 143.705 31.9681C143.918 31.7334 144.105 31.4027 144.265 30.9761L144.809 29.5361L141.737 21.9521H143.065L145.417 28.1441Z" fill="#FCFCFC"/>
<path d="M150.352 23.6161C150.352 23.3387 150.341 23.0614 150.32 22.7841C150.309 22.5067 150.293 22.2294 150.272 21.9521H151.408V23.0881H151.44C151.696 22.6507 152.048 22.3201 152.496 22.0961C152.954 21.8721 153.408 21.7601 153.856 21.7601C154.058 21.7601 154.272 21.7814 154.496 21.8241C154.73 21.8667 154.954 21.9467 155.168 22.0641C155.381 22.1707 155.578 22.3254 155.76 22.5281C155.952 22.7307 156.112 22.9921 156.24 23.3121C156.453 22.8321 156.789 22.4534 157.248 22.1761C157.717 21.8987 158.202 21.7601 158.704 21.7601C159.664 21.7601 160.373 22.0161 160.832 22.5281C161.29 23.0294 161.52 23.7494 161.52 24.6881V29.4401H160.464V25.0721C160.464 24.3147 160.33 23.7334 160.064 23.3281C159.797 22.9227 159.301 22.7201 158.576 22.7201C158.181 22.7201 157.85 22.8001 157.584 22.9601C157.317 23.1094 157.098 23.3121 156.928 23.5681C156.768 23.8241 156.65 24.1174 156.576 24.4481C156.501 24.7681 156.464 25.1041 156.464 25.4561V29.4401H155.408V25.0721C155.408 24.3147 155.274 23.7334 155.008 23.3281C154.741 22.9227 154.245 22.7201 153.52 22.7201C153.456 22.7201 153.306 22.7414 153.072 22.7841C152.848 22.8267 152.613 22.9441 152.368 23.1361C152.122 23.3281 151.898 23.6161 151.696 24.0001C151.504 24.3841 151.408 24.9174 151.408 25.6001V29.4401H150.352V23.6161Z" fill="#FCFCFC"/>
<path d="M169.801 25.1201C169.801 24.4054 169.587 23.8294 169.161 23.3921C168.734 22.9441 168.137 22.7201 167.369 22.7201C167.027 22.7201 166.697 22.7894 166.377 22.9281C166.057 23.0561 165.774 23.2321 165.529 23.4561C165.294 23.6801 165.102 23.9361 164.953 24.2241C164.814 24.5121 164.745 24.8107 164.745 25.1201H169.801ZM164.713 25.9841C164.745 26.3574 164.835 26.7094 164.985 27.0401C165.134 27.3707 165.331 27.6587 165.577 27.9041C165.822 28.1387 166.105 28.3254 166.425 28.4641C166.745 28.6027 167.091 28.6721 167.465 28.6721C168.03 28.6721 168.515 28.5441 168.921 28.2881C169.337 28.0214 169.651 27.7174 169.865 27.3761L170.681 28.0481C170.233 28.6134 169.737 29.0187 169.193 29.2641C168.659 29.5094 168.083 29.6321 167.465 29.6321C166.91 29.6321 166.393 29.5361 165.913 29.3441C165.443 29.1414 165.038 28.8641 164.697 28.5121C164.355 28.1601 164.083 27.7441 163.881 27.2641C163.689 26.7841 163.593 26.2614 163.593 25.6961C163.593 25.1307 163.689 24.6081 163.881 24.1281C164.073 23.6481 164.339 23.2321 164.681 22.8801C165.022 22.5281 165.422 22.2561 165.881 22.0641C166.339 21.8614 166.835 21.7601 167.369 21.7601C167.934 21.7601 168.441 21.8614 168.889 22.0641C169.337 22.2667 169.71 22.5387 170.009 22.8801C170.318 23.2107 170.553 23.6054 170.713 24.0641C170.873 24.5121 170.953 24.9921 170.953 25.5041V25.9841H164.713Z" fill="#FCFCFC"/>
<path d="M173.875 21.9521C173.897 22.1547 173.907 22.3574 173.907 22.5601C173.918 22.7521 173.923 22.9494 173.923 23.1521H173.955C174.073 22.9494 174.222 22.7627 174.403 22.5921C174.585 22.4214 174.787 22.2774 175.011 22.1601C175.235 22.0321 175.47 21.9361 175.715 21.8721C175.971 21.7974 176.222 21.7601 176.467 21.7601C177.427 21.7601 178.137 22.0161 178.595 22.5281C179.054 23.0294 179.283 23.7494 179.283 24.6881V29.4401H178.227V25.2961C178.227 24.4641 178.083 23.8294 177.795 23.3921C177.507 22.9441 176.974 22.7201 176.195 22.7201C176.142 22.7201 175.993 22.7414 175.747 22.7841C175.502 22.8267 175.241 22.9441 174.963 23.1361C174.697 23.3281 174.457 23.6161 174.243 24.0001C174.03 24.3841 173.923 24.9174 173.923 25.6001V29.4401H172.867V23.6001C172.867 23.3974 172.857 23.1414 172.835 22.8321C172.825 22.5227 172.809 22.2294 172.787 21.9521H173.875Z" fill="#FCFCFC"/>
<path d="M185.63 22.9121H183.47V27.3281C183.47 27.6054 183.497 27.8347 183.55 28.0161C183.603 28.1867 183.678 28.3201 183.774 28.4161C183.87 28.5121 183.982 28.5814 184.11 28.6241C184.249 28.6561 184.398 28.6721 184.558 28.6721C184.739 28.6721 184.926 28.6454 185.118 28.5921C185.31 28.5387 185.486 28.4694 185.646 28.3841L185.694 29.3601C185.299 29.5414 184.825 29.6321 184.27 29.6321C184.067 29.6321 183.854 29.6054 183.63 29.5521C183.417 29.4987 183.219 29.3974 183.038 29.2481C182.857 29.0987 182.707 28.8961 182.59 28.6401C182.473 28.3841 182.414 28.0481 182.414 27.6321V22.9121H180.83V21.9521H182.414V19.8401H183.47V21.9521H185.63V22.9121Z" fill="#FCFCFC"/>
<path d="M129.165 45.4401H128.013V35.1681H124.221V34.1121H132.957V35.1681H129.165V45.4401Z" fill="#FCFCFC"/>
<path d="M138.379 41.1201C138.379 40.4054 138.166 39.8294 137.739 39.3921C137.312 38.9441 136.715 38.7201 135.947 38.7201C135.606 38.7201 135.275 38.7894 134.955 38.9281C134.635 39.0561 134.352 39.2321 134.107 39.4561C133.872 39.6801 133.68 39.9361 133.531 40.2241C133.392 40.5121 133.323 40.8107 133.323 41.1201H138.379ZM133.291 41.9841C133.323 42.3574 133.414 42.7094 133.563 43.0401C133.712 43.3707 133.91 43.6587 134.155 43.9041C134.4 44.1387 134.683 44.3254 135.003 44.4641C135.323 44.6027 135.67 44.6721 136.043 44.6721C136.608 44.6721 137.094 44.5441 137.499 44.2881C137.915 44.0214 138.23 43.7174 138.443 43.3761L139.259 44.0481C138.811 44.6134 138.315 45.0187 137.771 45.2641C137.238 45.5094 136.662 45.6321 136.043 45.6321C135.488 45.6321 134.971 45.5361 134.491 45.3441C134.022 45.1414 133.616 44.8641 133.275 44.5121C132.934 44.1601 132.662 43.7441 132.459 43.2641C132.267 42.7841 132.171 42.2614 132.171 41.6961C132.171 41.1307 132.267 40.6081 132.459 40.1281C132.651 39.6481 132.918 39.2321 133.259 38.8801C133.6 38.5281 134 38.2561 134.459 38.0641C134.918 37.8614 135.414 37.7601 135.947 37.7601C136.512 37.7601 137.019 37.8614 137.467 38.0641C137.915 38.2667 138.288 38.5387 138.587 38.8801C138.896 39.2107 139.131 39.6054 139.291 40.0641C139.451 40.5121 139.531 40.9921 139.531 41.5041V41.9841H133.291Z" fill="#FCFCFC"/>
<path d="M146.902 39.7121C146.72 39.4347 146.464 39.2001 146.134 39.0081C145.814 38.8161 145.446 38.7201 145.03 38.7201C144.592 38.7094 144.198 38.7787 143.846 38.9281C143.504 39.0774 143.211 39.2854 142.966 39.5521C142.72 39.8187 142.534 40.1387 142.406 40.5121C142.278 40.8747 142.214 41.2694 142.214 41.6961C142.214 42.1227 142.278 42.5227 142.406 42.8961C142.534 43.2587 142.72 43.5734 142.966 43.8401C143.211 44.1067 143.504 44.3147 143.846 44.4641C144.198 44.6134 144.592 44.6827 145.03 44.6721C145.446 44.6721 145.814 44.5761 146.134 44.3841C146.464 44.1921 146.72 43.9574 146.902 43.6801L147.766 44.3361C147.392 44.7734 146.971 45.0987 146.502 45.3121C146.032 45.5147 145.542 45.6214 145.03 45.6321C144.422 45.6427 143.872 45.5521 143.382 45.3601C142.891 45.1574 142.47 44.8801 142.118 44.5281C141.776 44.1761 141.515 43.7601 141.334 43.2801C141.152 42.7894 141.062 42.2614 141.062 41.6961C141.062 41.1307 141.152 40.6081 141.334 40.1281C141.515 39.6374 141.776 39.2161 142.118 38.8641C142.47 38.5121 142.891 38.2401 143.382 38.0481C143.872 37.8454 144.422 37.7494 145.03 37.7601C145.542 37.7707 146.032 37.8827 146.502 38.0961C146.971 38.2987 147.392 38.6187 147.766 39.0561L146.902 39.7121Z" fill="#FCFCFC"/>
<path d="M149.164 33.3441H150.22V39.1521H150.252C150.37 38.9494 150.519 38.7627 150.7 38.5921C150.882 38.4214 151.084 38.2774 151.308 38.1601C151.532 38.0321 151.767 37.9361 152.012 37.8721C152.268 37.7974 152.519 37.7601 152.764 37.7601C153.724 37.7601 154.434 38.0161 154.892 38.5281C155.351 39.0294 155.58 39.7494 155.58 40.6881V45.4401H154.524V41.2961C154.524 40.4641 154.38 39.8294 154.092 39.3921C153.804 38.9441 153.271 38.7201 152.492 38.7201C152.439 38.7201 152.29 38.7414 152.044 38.7841C151.799 38.8267 151.538 38.9441 151.26 39.1361C150.994 39.3281 150.754 39.6161 150.54 40.0001C150.327 40.3841 150.22 40.9174 150.22 41.6001V45.4401H149.164V33.3441Z" fill="#FCFCFC"/>
<path d="M159.063 37.9521C159.084 38.1547 159.095 38.3574 159.095 38.5601C159.106 38.7521 159.111 38.9494 159.111 39.1521H159.143C159.26 38.9494 159.41 38.7627 159.591 38.5921C159.772 38.4214 159.975 38.2774 160.199 38.1601C160.423 38.0321 160.658 37.9361 160.903 37.8721C161.159 37.7974 161.41 37.7601 161.655 37.7601C162.615 37.7601 163.324 38.0161 163.783 38.5281C164.242 39.0294 164.471 39.7494 164.471 40.6881V45.4401H163.415V41.2961C163.415 40.4641 163.271 39.8294 162.983 39.3921C162.695 38.9441 162.162 38.7201 161.383 38.7201C161.33 38.7201 161.18 38.7414 160.935 38.7841C160.69 38.8267 160.428 38.9441 160.151 39.1361C159.884 39.3281 159.644 39.6161 159.431 40.0001C159.218 40.3841 159.111 40.9174 159.111 41.6001V45.4401H158.055V39.6001C158.055 39.3974 158.044 39.1414 158.023 38.8321C158.012 38.5227 157.996 38.2294 157.975 37.9521H159.063Z" fill="#FCFCFC"/>
<path d="M173.362 41.6961C173.362 41.2801 173.292 40.8907 173.154 40.5281C173.026 40.1654 172.839 39.8507 172.594 39.5841C172.348 39.3174 172.05 39.1094 171.698 38.9601C171.356 38.8001 170.967 38.7201 170.53 38.7201C170.092 38.7201 169.698 38.8001 169.346 38.9601C169.004 39.1094 168.711 39.3174 168.466 39.5841C168.231 39.8507 168.044 40.1654 167.906 40.5281C167.778 40.8907 167.714 41.2801 167.714 41.6961C167.714 42.1121 167.778 42.5014 167.906 42.8641C168.044 43.2267 168.231 43.5414 168.466 43.8081C168.711 44.0747 169.004 44.2881 169.346 44.4481C169.698 44.5974 170.092 44.6721 170.53 44.6721C170.967 44.6721 171.356 44.5974 171.698 44.4481C172.05 44.2881 172.348 44.0747 172.594 43.8081C172.839 43.5414 173.026 43.2267 173.154 42.8641C173.292 42.5014 173.362 42.1121 173.362 41.6961ZM174.514 41.6961C174.514 42.2614 174.412 42.7841 174.21 43.2641C174.018 43.7441 173.746 44.1601 173.394 44.5121C173.042 44.8641 172.62 45.1414 172.13 45.3441C171.65 45.5361 171.116 45.6321 170.53 45.6321C169.954 45.6321 169.42 45.5361 168.93 45.3441C168.45 45.1414 168.034 44.8641 167.682 44.5121C167.33 44.1601 167.052 43.7441 166.85 43.2641C166.658 42.7841 166.562 42.2614 166.562 41.6961C166.562 41.1307 166.658 40.6081 166.85 40.1281C167.052 39.6481 167.33 39.2321 167.682 38.8801C168.034 38.5281 168.45 38.2561 168.93 38.0641C169.42 37.8614 169.954 37.7601 170.53 37.7601C171.116 37.7601 171.65 37.8614 172.13 38.0641C172.62 38.2561 173.042 38.5281 173.394 38.8801C173.746 39.2321 174.018 39.6481 174.21 40.1281C174.412 40.6081 174.514 41.1307 174.514 41.6961Z" fill="#FCFCFC"/>
<path d="M177.726 45.4401H176.67V33.3441H177.726V45.4401Z" fill="#FCFCFC"/>
<path d="M186.69 41.6961C186.69 41.2801 186.62 40.8907 186.482 40.5281C186.354 40.1654 186.167 39.8507 185.922 39.5841C185.676 39.3174 185.378 39.1094 185.026 38.9601C184.684 38.8001 184.295 38.7201 183.858 38.7201C183.42 38.7201 183.026 38.8001 182.674 38.9601C182.332 39.1094 182.039 39.3174 181.794 39.5841C181.559 39.8507 181.372 40.1654 181.234 40.5281C181.106 40.8907 181.042 41.2801 181.042 41.6961C181.042 42.1121 181.106 42.5014 181.234 42.8641C181.372 43.2267 181.559 43.5414 181.794 43.8081C182.039 44.0747 182.332 44.2881 182.674 44.4481C183.026 44.5974 183.42 44.6721 183.858 44.6721C184.295 44.6721 184.684 44.5974 185.026 44.4481C185.378 44.2881 185.676 44.0747 185.922 43.8081C186.167 43.5414 186.354 43.2267 186.482 42.8641C186.62 42.5014 186.69 42.1121 186.69 41.6961ZM187.842 41.6961C187.842 42.2614 187.74 42.7841 187.538 43.2641C187.346 43.7441 187.074 44.1601 186.722 44.5121C186.37 44.8641 185.948 45.1414 185.458 45.3441C184.978 45.5361 184.444 45.6321 183.858 45.6321C183.282 45.6321 182.748 45.5361 182.258 45.3441C181.778 45.1414 181.362 44.8641 181.01 44.5121C180.658 44.1601 180.38 43.7441 180.178 43.2641C179.986 42.7841 179.89 42.2614 179.89 41.6961C179.89 41.1307 179.986 40.6081 180.178 40.1281C180.38 39.6481 180.658 39.2321 181.01 38.8801C181.362 38.5281 181.778 38.2561 182.258 38.0641C182.748 37.8614 183.282 37.7601 183.858 37.7601C184.444 37.7601 184.978 37.8614 185.458 38.0641C185.948 38.2561 186.37 38.5281 186.722 38.8801C187.074 39.2321 187.346 39.6481 187.538 40.1281C187.74 40.6081 187.842 41.1307 187.842 41.6961Z" fill="#FCFCFC"/>
<path d="M190.526 41.6001C190.526 41.9947 190.595 42.3681 190.734 42.7201C190.883 43.0614 191.081 43.3654 191.326 43.6321C191.582 43.8881 191.875 44.0961 192.206 44.2561C192.547 44.4054 192.915 44.4801 193.31 44.4801C193.694 44.4801 194.057 44.4107 194.398 44.2721C194.75 44.1334 195.059 43.9414 195.326 43.6961C195.593 43.4401 195.795 43.1361 195.934 42.7841C196.083 42.4321 196.153 42.0374 196.142 41.6001C196.142 41.2054 196.078 40.8374 195.95 40.4961C195.822 40.1441 195.635 39.8401 195.39 39.5841C195.145 39.3174 194.846 39.1094 194.494 38.9601C194.142 38.8001 193.747 38.7201 193.31 38.7201C192.915 38.7201 192.547 38.8001 192.206 38.9601C191.875 39.1094 191.582 39.3174 191.326 39.5841C191.081 39.8401 190.883 40.1441 190.734 40.4961C190.595 40.8374 190.526 41.2054 190.526 41.6001ZM190.334 46.9441C190.643 47.3601 191.043 47.6907 191.534 47.9361C192.035 48.1921 192.59 48.3201 193.198 48.3201C193.731 48.3201 194.185 48.2401 194.558 48.0801C194.931 47.9307 195.23 47.7227 195.454 47.4561C195.689 47.1894 195.854 46.8747 195.95 46.5121C196.057 46.1601 196.11 45.7814 196.11 45.3761V44.0321H196.078C195.737 44.5441 195.321 44.9067 194.83 45.1201C194.339 45.3334 193.822 45.4401 193.278 45.4401C192.734 45.4401 192.222 45.3441 191.742 45.1521C191.273 44.9601 190.862 44.6987 190.51 44.3681C190.158 44.0267 189.881 43.6214 189.678 43.1521C189.475 42.6827 189.374 42.1761 189.374 41.6321C189.374 41.0881 189.47 40.5814 189.662 40.1121C189.854 39.6427 190.115 39.2321 190.446 38.8801C190.787 38.5281 191.187 38.2561 191.646 38.0641C192.115 37.8614 192.627 37.7601 193.182 37.7601C193.406 37.7601 193.641 37.7814 193.886 37.8241C194.142 37.8667 194.393 37.9414 194.638 38.0481C194.894 38.1547 195.145 38.3041 195.39 38.4961C195.635 38.6774 195.865 38.9121 196.078 39.2001H196.11V37.9521H197.166V45.3761C197.166 45.7814 197.113 46.2134 197.006 46.6721C196.91 47.1307 196.713 47.5521 196.414 47.9361C196.126 48.3201 195.721 48.6401 195.198 48.8961C194.675 49.1521 193.993 49.2801 193.15 49.2801C192.403 49.2801 191.737 49.1574 191.15 48.9121C190.563 48.6667 190.03 48.2881 189.55 47.7761L190.334 46.9441Z" fill="#FCFCFC"/>
<path d="M201.075 35.0721C201.075 35.2961 200.995 35.4827 200.835 35.6321C200.675 35.7707 200.499 35.8401 200.307 35.8401C200.115 35.8401 199.939 35.7707 199.779 35.6321C199.619 35.4827 199.539 35.2961 199.539 35.0721C199.539 34.8481 199.619 34.6667 199.779 34.5281C199.939 34.3787 200.115 34.3041 200.307 34.3041C200.499 34.3041 200.675 34.3787 200.835 34.5281C200.995 34.6667 201.075 34.8481 201.075 35.0721ZM200.835 45.4401H199.779V37.9521H200.835V45.4401Z" fill="#FCFCFC"/>
<path d="M209.207 41.1201C209.207 40.4054 208.994 39.8294 208.567 39.3921C208.14 38.9441 207.543 38.7201 206.775 38.7201C206.434 38.7201 206.103 38.7894 205.783 38.9281C205.463 39.0561 205.18 39.2321 204.935 39.4561C204.7 39.6801 204.508 39.9361 204.359 40.2241C204.22 40.5121 204.151 40.8107 204.151 41.1201H209.207ZM204.119 41.9841C204.151 42.3574 204.242 42.7094 204.391 43.0401C204.54 43.3707 204.738 43.6587 204.983 43.9041C205.228 44.1387 205.511 44.3254 205.831 44.4641C206.151 44.6027 206.498 44.6721 206.871 44.6721C207.436 44.6721 207.922 44.5441 208.327 44.2881C208.743 44.0214 209.058 43.7174 209.271 43.3761L210.087 44.0481C209.639 44.6134 209.143 45.0187 208.599 45.2641C208.066 45.5094 207.49 45.6321 206.871 45.6321C206.316 45.6321 205.799 45.5361 205.319 45.3441C204.85 45.1414 204.444 44.8641 204.103 44.5121C203.762 44.1601 203.49 43.7441 203.287 43.2641C203.095 42.7841 202.999 42.2614 202.999 41.6961C202.999 41.1307 203.095 40.6081 203.287 40.1281C203.479 39.6481 203.746 39.2321 204.087 38.8801C204.428 38.5281 204.828 38.2561 205.287 38.0641C205.746 37.8614 206.242 37.7601 206.775 37.7601C207.34 37.7601 207.847 37.8614 208.295 38.0641C208.743 38.2667 209.116 38.5387 209.415 38.8801C209.724 39.2107 209.959 39.6054 210.119 40.0641C210.279 40.5121 210.359 40.9921 210.359 41.5041V41.9841H204.119Z" fill="#FCFCFC"/>
<path d="M216.242 39.7281C216.082 39.4187 215.868 39.1734 215.602 38.9921C215.335 38.8107 215.01 38.7201 214.626 38.7201C214.444 38.7201 214.258 38.7414 214.066 38.7841C213.884 38.8267 213.719 38.8961 213.57 38.9921C213.42 39.0774 213.298 39.1894 213.202 39.3281C213.116 39.4667 213.074 39.6374 213.074 39.8401C213.074 40.1921 213.196 40.4481 213.442 40.6081C213.687 40.7681 214.055 40.9067 214.546 41.0241L215.618 41.2801C216.14 41.3974 216.572 41.6374 216.914 42.0001C217.266 42.3521 217.442 42.7947 217.442 43.3281C217.442 43.7334 217.356 44.0854 217.186 44.3841C217.026 44.6721 216.807 44.9121 216.53 45.1041C216.263 45.2854 215.954 45.4187 215.602 45.5041C215.25 45.5894 214.892 45.6321 214.53 45.6321C213.954 45.6321 213.415 45.5254 212.914 45.3121C212.423 45.0881 212.002 44.7094 211.65 44.1761L212.562 43.5521C212.775 43.8934 213.042 44.1654 213.362 44.3681C213.692 44.5707 214.082 44.6721 214.53 44.6721C214.743 44.6721 214.956 44.6507 215.17 44.6081C215.383 44.5547 215.57 44.4801 215.73 44.3841C215.9 44.2774 216.034 44.1441 216.13 43.9841C216.236 43.8241 216.29 43.6374 216.29 43.4241C216.29 43.0507 216.151 42.7841 215.874 42.6241C215.596 42.4534 215.26 42.3201 214.866 42.2241L213.842 41.9841C213.714 41.9521 213.538 41.8987 213.314 41.8241C213.1 41.7494 212.887 41.6374 212.674 41.4881C212.471 41.3387 212.295 41.1467 212.146 40.9121C211.996 40.6667 211.922 40.3681 211.922 40.0161C211.922 39.6321 211.996 39.2961 212.146 39.0081C212.306 38.7201 212.514 38.4854 212.77 38.3041C213.036 38.1227 213.335 37.9894 213.666 37.9041C213.996 37.8081 214.338 37.7601 214.69 37.7601C215.212 37.7601 215.698 37.8614 216.146 38.0641C216.594 38.2667 216.94 38.6134 217.186 39.1041L216.242 39.7281Z" fill="#FCFCFC"/>
</svg>
