<svg width="271" height="268" viewBox="0 0 271 268" fill="none" xmlns="http://www.w3.org/2000/svg">
<path d="M191.002 75.4126L190.616 75.0963L190.299 75.4818L184.423 82.6255L184.112 83.0037L184.484 83.3225C190.311 88.3235 196.961 91.2894 204.033 92.2096V97.6509V98.1509H204.533H209.569H210.069V97.6509V92.2443C215.202 91.9562 219.752 90.3652 223.058 87.5803C226.478 84.6997 228.534 80.5668 228.534 75.3791C228.534 69.9829 226.583 66.2646 223.259 63.591C219.968 60.9438 215.364 59.3478 210.106 58.0841L210.069 58.0754V44.0026C213.942 44.4985 217.476 46.0998 221.042 48.4806L221.443 48.7483L221.725 48.3572L227.181 40.7933L227.479 40.3801L227.06 40.0899C221.669 36.3524 216.27 34.6354 210.489 34.1548V30.4155V29.9155H209.989H204.953H204.453V30.4155V34.1423C199.526 34.4336 195.182 36.027 192.032 38.8131C188.772 41.697 186.828 45.8282 186.828 51.0063C186.828 56.3945 188.668 60.0119 191.894 62.5856C195.005 65.0668 199.366 66.5458 204.453 67.7883V82.3447C199.756 81.4315 195.397 79.0133 191.002 75.4126ZM210.489 82.378V68.8807C212.71 69.4715 214.501 70.1554 215.765 71.1497C217.108 72.2067 217.882 73.6353 217.882 75.7994C217.882 77.7131 216.933 79.258 215.455 80.3929C214.103 81.4306 212.323 82.1108 210.489 82.378ZM197.48 49.7456C197.48 47.8183 198.336 46.3844 199.693 45.3654C200.942 44.4272 202.624 43.8377 204.453 43.585V56.2293C202.436 55.6434 200.752 54.9678 199.542 54.0261C198.241 53.0123 197.48 51.6838 197.48 49.7456Z" fill="#293165" stroke="#293165"/>
<path d="M170.201 143.795C170.177 133.472 169.408 123.892 168.249 114.349C179.095 122.773 192.676 127.566 207.051 127.566H207.068L207.085 127.565C213.23 127.155 219.4 126.344 225.58 124.348C227.123 130.693 227.925 137.055 228.343 143.795H170.201ZM157.567 41.1296L157.57 41.1223L157.573 41.1148L157.574 41.1142L157.575 41.1107L157.582 41.0952C157.588 41.081 157.597 41.0593 157.61 41.0303C157.635 40.9723 157.674 40.885 157.727 40.7706C157.831 40.5417 157.991 40.2039 158.207 39.7728C158.639 38.9104 159.298 37.675 160.202 36.1909C162.009 33.2219 164.793 29.2624 168.694 25.3036C176.493 17.3902 188.751 9.4842 206.632 9.4842C236.57 9.4842 260.687 33.6325 260.687 63.613C260.687 93.5934 236.57 117.742 206.632 117.742C167.544 117.742 140.935 77.3532 157.567 41.1296ZM119.343 267.5C184.666 267.5 238.186 214.329 238.186 148.498C238.186 139.346 236.959 129.791 234.908 121.038C256.693 110.383 270.5 88.4641 270.5 64.0332C270.5 28.8793 242.16 0.5 207.051 0.5C183.5 0.5 162.039 13.4806 150.985 34.0285C140.574 31.1502 130.161 29.9156 119.345 29.9155C52.7553 29.4943 0.5 83.5138 0.5 148.498C0.5 213.905 53.178 267.5 119.343 267.5ZM25.1735 92.3301C41.2339 95.6243 56.9033 98.5105 72.174 100.191C69.7315 113.789 68.1004 128.585 68.0653 143.795H9.91759C10.8253 125.691 16.1753 108.004 25.1735 92.3301ZM119.343 38.8997C123.589 38.8997 127.776 40.821 131.861 44.4969C135.922 48.1517 139.853 53.5172 143.594 60.3616C142.799 71.4881 145.203 82.6097 150.421 92.1688C129.043 93.7749 106.865 93.7639 84.2823 91.741C87.8382 75.641 93.0168 62.4551 99.092 53.2784C105.249 43.9788 112.252 38.8997 119.343 38.8997ZM228.35 153.2C227.444 171.714 222.09 189.404 212.688 205.075C197.424 201.371 181.759 198.478 166.091 196.396C168.533 182.8 170.165 168.009 170.201 153.2H228.35ZM119.343 258.096C112.465 258.096 105.567 253.022 99.3532 243.715C93.226 234.538 87.8431 221.353 83.8774 205.256C108.205 203.217 131.71 202.81 154.397 204.833C150.636 220.935 145.355 234.226 139.278 243.509C133.116 252.922 126.217 258.096 119.343 258.096ZM81.564 101.545C108.962 103.604 132.68 103.603 155.567 101.541C155.737 101.844 155.904 102.096 156.063 102.334L156.067 102.34C156.266 102.639 156.45 102.917 156.635 103.277C159.109 116.102 160.361 129.748 160.389 144.216H77.4723C77.9008 129.441 79.1351 114.695 81.564 101.545ZM77.8782 153.2H160.795C160.366 167.963 159.132 182.305 156.704 195.446C132.616 193.393 107.709 193.396 81.9818 195.861C79.5428 182.701 77.9142 167.957 77.8782 153.2ZM9.91691 153.2H68.0783C68.5059 168.397 69.7397 183.194 72.1741 196.804C56.906 198.474 40.8376 200.959 25.1605 204.657C15.7655 188.995 10.8157 171.712 9.91691 153.2ZM74.4755 206.195C79.7316 228.27 87.308 245.404 96.8821 255.681C70.238 250.027 47.2003 234.951 30.8324 213.131C45.5202 210.285 60.196 207.845 74.4755 206.195ZM164.211 205.774C178.897 207.424 193.185 209.875 207.464 213.511C191.093 235.339 167.659 250.036 141.765 255.68C151.354 245.038 158.946 227.887 164.211 205.774ZM144.756 42.1115C145.425 42.2723 146.116 42.4388 146.835 42.5772C146.614 43.3516 146.288 44.3314 145.989 45.2279L145.988 45.2319C145.839 45.6795 145.697 46.1055 145.581 46.4674C144.306 44.6541 142.864 42.8922 141.564 41.489C142.313 41.5691 143.041 41.7127 143.782 41.8813C144.102 41.954 144.426 42.032 144.756 42.1115ZM30.8248 83.8592C46.8026 62.038 70.232 46.9582 96.5125 41.308C87.3114 51.5809 79.7341 68.7153 74.4755 90.8001C60.1968 89.1497 45.9062 86.7077 30.8248 83.8592Z" fill="#293165" stroke="#293165"/>
</svg>
